<svg width="148" height="148" viewBox="0 0 148 148" fill="none" xmlns="http://www.w3.org/2000/svg">
  <rect x="20" y="42" width="108" height="76" rx="8" fill="#C7FF4F" stroke="#111111" stroke-width="8"/>
  <path d="M34 45L16 20L55 38" fill="#9D6CFF"/>
  <path d="M114 45L132 20L93 38" fill="#9D6CFF"/>
  <path d="M34 45L16 20L55 38" stroke="#111111" stroke-width="8" stroke-linejoin="round"/>
  <path d="M114 45L132 20L93 38" stroke="#111111" stroke-width="8" stroke-linejoin="round"/>
  <rect x="43" y="66" width="21" height="21" fill="#111111"/>
  <rect x="84" y="66" width="21" height="21" fill="#111111"/>
  <rect x="50" y="72" width="7" height="7" fill="#4ED9FF"/>
  <rect x="91" y="72" width="7" height="7" fill="#4ED9FF"/>
  <path d="M54 102H94" stroke="#111111" stroke-width="8" stroke-linecap="square"/>
  <path d="M66 102V112" stroke="#111111" stroke-width="6"/>
  <path d="M82 102V112" stroke="#111111" stroke-width="6"/>
  <rect x="36" y="121" width="18" height="15" fill="#FF4E42" stroke="#111111" stroke-width="7"/>
  <rect x="94" y="121" width="18" height="15" fill="#FF4E42" stroke="#111111" stroke-width="7"/>
  <path d="M22 86L6 94" stroke="#111111" stroke-width="7" stroke-linecap="round"/>
  <path d="M126 86L142 94" stroke="#111111" stroke-width="7" stroke-linecap="round"/>
  <path d="M62 35H86" stroke="#111111" stroke-width="7" stroke-linecap="round"/>
</svg>
